<svg id="Layer_1" data-name="Layer 1" xmlns="http://www.w3.org/2000/svg" xmlns:xlink="http://www.w3.org/1999/xlink" viewBox="0 0 1120.39 1538.11"><defs><style>.cls-1{fill:url(#linear-gradient);}.cls-2{fill:url(#linear-gradient-2);}.cls-3{fill:url(#linear-gradient-3);}.cls-4{fill:url(#linear-gradient-4);}.cls-5{fill:url(#linear-gradient-5);}</style><linearGradient id="linear-gradient" x1="1024.91" y1="1210" x2="1560.13" y2="1210" gradientUnits="userSpaceOnUse"><stop offset="0" stop-color="#009444"/><stop offset="0.33" stop-color="#008941"/><stop offset="0.91" stop-color="#006d39"/><stop offset="1" stop-color="#006838"/></linearGradient><linearGradient id="linear-gradient-2" x1="622.84" y1="1282.56" x2="227.15" y2="922.14" gradientUnits="userSpaceOnUse"><stop offset="0" stop-color="#1a4797"/><stop offset="0.41" stop-color="#1959a5"/><stop offset="1" stop-color="#176fb7"/></linearGradient><linearGradient id="linear-gradient-3" x1="604.9" y1="737.04" x2="994.04" y2="356.98" gradientUnits="userSpaceOnUse"><stop offset="0" stop-color="#2b3990"/><stop offset="0.21" stop-color="#254fa0"/><stop offset="0.48" stop-color="#2064b0"/><stop offset="0.75" stop-color="#1d71b9"/><stop offset="1" stop-color="#1c75bc"/></linearGradient><linearGradient id="linear-gradient-4" x1="853.94" y1="1947.7" x2="1275.32" y2="1526.32" gradientTransform="translate(1673.74 3196.05) rotate(180)" gradientUnits="userSpaceOnUse"><stop offset="0" stop-color="#1c75bc"/><stop offset="0.27" stop-color="#1f6ab4"/><stop offset="0.75" stop-color="#264b9d"/><stop offset="1" stop-color="#2b3990"/></linearGradient><linearGradient id="linear-gradient-5" x1="1601.32" y1="750.32" x2="1180.81" y2="1170.83" gradientUnits="userSpaceOnUse"><stop offset="0" stop-color="#009444"/><stop offset="0.3" stop-color="#009043"/><stop offset="0.61" stop-color="#00833f"/><stop offset="0.93" stop-color="#006e3a"/><stop offset="1" stop-color="#006838"/></linearGradient></defs><path class="cls-1" d="M1502.22,1769.21h0l-139.8-139.8-139.8-139.8-139.8-139.8v0c-77.21-77.21-77.21-202.39,0-279.6h0l139.8-139.8,139.8-139.8,139.8-139.8h0c77.22,77.22,77.22,202.41,0,279.63l-229.75,229.75a70.46,70.46,0,0,0,0,99.67l90,90,139.8,139.8C1579.43,1566.81,1579.43,1692,1502.22,1769.21Z" transform="translate(-439.74 -231.1)"/><path class="cls-2" d="M917.09,1349.49v0l-139.8,139.8-139.8,139.8L497.68,1768.9a197.69,197.69,0,0,1,0-279.59l230.1-230.1a70,70,0,0,0,0-99L497.69,930.12c-77.21-77.22-77.21-202.41,0-279.63l43.05-43C580,744,642.94,799.47,696.15,849l220.94,220.94C994.3,1147.1,994.3,1272.28,917.09,1349.49Z" transform="translate(-439.74 -231.1)"/><path class="cls-3" d="M975,370.9a197.05,197.05,0,0,1-57.91,139.79l-139.8,139.8L687,740.8a70,70,0,0,0,0,99l9.17,9.17C642.94,799.47,576,749,540.74,607.44L777.29,370.89,917.09,231.1A197.06,197.06,0,0,1,975,370.9Z" transform="translate(-439.74 -231.1)"/><path class="cls-4" d="M439.74,1629.15a197.05,197.05,0,0,1,57.91-139.79l139.8-139.8,90.31-90.31a70,70,0,0,0,0-99l-9.17-9.17C771.8,1200.58,845,1253,874,1392.61L637.45,1629.16,497.65,1769A197.06,197.06,0,0,1,439.74,1629.15Z" transform="translate(-439.74 -231.1)"/><path class="cls-5" d="M1560,790.9a197.05,197.05,0,0,1-57.91,139.79l-139.8,139.8L1272,1160.8a70,70,0,0,0,0,99l9.17,9.17c-53.21-49.48-118.15-104-155.41-241.51l236.55-236.55,139.8-139.79A197.06,197.06,0,0,1,1560,790.9Z" transform="translate(-439.74 -231.1)"/></svg>